<?xml version="1.0" encoding="UTF-8"?> <!-- Generator: Adobe Illustrator 25.2.3, SVG Export Plug-In . SVG Version: 6.00 Build 0) --> <svg xmlns="http://www.w3.org/2000/svg" xmlns:xlink="http://www.w3.org/1999/xlink" version="1.1" id="katman_1" x="0px" y="0px" viewBox="0 0 291.3 214.3" style="enable-background:new 0 0 291.3 214.3;" xml:space="preserve"> <style type="text/css"> .st0{fill-rule:evenodd;clip-rule:evenodd;} .st1{fill:#009640;} </style> <polygon points="21.5,60.9 81.6,60.9 123.7,91.7 165.6,91.7 207.7,60.9 268.2,60.9 178.7,126 144.8,95.6 110.3,125.9 21.5,60.9 "></polygon> <path d="M26.8,160.4l0,5.4h19.7c4.5,0,6.6-1.8,6.4-5.3V157c-0.1-3.9-2.3-5.6-6.5-5.3H34.2c-1.1,0-1.4-0.9-1.3-2 c0.1-1.3,0.5-1.7,3-1.6H52V143H31.9c-3.6-0.1-5.2,1.2-5.1,4.3v4.4c0,3.1,1.1,5,5.8,5.1h10.6c2.9,0,3.9,0.1,3.9,1.9 c0,1.5-1.2,1.7-3.9,1.7L26.8,160.4L26.8,160.4z"></path> <polygon points="52.8,143 52.8,148.1 61.8,148.1 61.9,165.8 67.8,165.8 67.8,148.4 77.6,148.4 77.6,143 52.8,143 "></polygon> <path d="M77.5,165.8h5.7V151c0-1.8,1.1-2.7,2.9-2.6h11c1.7,0,2.7,0.8,2.6,2.4v3.1v0.2H86.4v4.8h13.2v7h6v-16.6 c-0.3-4.3-2.6-6.3-8.2-6.2H84.8c-4.8,0.1-7.4,2.3-7.3,6.5L77.5,165.8L77.5,165.8z"></path> <path d="M107.4,165.8h6v-17.4h16.4v3c0,1.4-0.6,2.1-2.4,2.1h-10.8l12.4,12.3h7.9l-7.4-7.2c4.9,0.1,6.3-3,6.3-8 c-0.1-5.2-2.1-7.5-7.2-7.5h-21.4L107.4,165.8L107.4,165.8z"></path> <path d="M135.6,143h6.2l3.2,14.3l5.3-14.3h6.2l5,14.2l3.6-14.2h6.4l-6.3,22.9H160c-1.4,0-2.4-1.4-2.9-3.3l-3.7-11l-4.4,11.7 c-0.8,1.8-2,2.5-3.7,2.5h-4L135.6,143L135.6,143z"></path> <path class="st0" d="M241.4,148.7v12.1h12.9c1.7,0,2.4-0.9,2-3.1v-6.3c0-1.8-0.5-2.6-2.5-2.7L241.4,148.7L241.4,148.7z M235.5,143 v23h20.3c4.7,0.4,7.1-2.5,7-8.7l0-4.4c-0.1-7.1-2.4-9.9-8.2-9.9H235.5L235.5,143z"></path> <path class="st0" d="M209.6,150.1l-0.2,8.3c0,1.8,0.7,2.3,3.1,2.4h12c2.2,0,2.3-1.1,2.3-2.5l-0.1-8c-0.1-1.4-1-2.1-2.5-2.1h-11.8 C210.4,148.1,209.6,148.6,209.6,150.1L209.6,150.1z M203.4,148.1c-0.4,3.9-0.4,8,0,12.3c0.5,4.7,1.4,5.6,5.9,5.4 c5.6,0.3,11.5,0.3,17.8,0c2.9,0,5.8-0.7,5.8-5.4c0.3-3.8,0.3-8.2,0-12.3c-0.2-3.4-2.6-5-6.6-5c-4.5-0.2-11.3-0.2-16.1,0 C205.6,143,203.4,144.6,203.4,148.1L203.4,148.1z"></path> <path class="st0" d="M177.6,150.1l-0.2,8.3c0,1.8,0.7,2.3,3.1,2.4h12c2.2,0,2.3-1.1,2.3-2.5l-0.1-8c-0.1-1.4-1-2.1-2.5-2.1h-11.8 C178.3,148.1,177.6,148.6,177.6,150.1L177.6,150.1z M171.3,148.1c-0.4,3.9-0.4,8,0,12.3c0.5,4.7,1.4,5.6,5.9,5.4 c5.6,0.3,11.5,0.3,17.8,0c2.9,0,5.8-0.7,5.8-5.4c0.3-3.8,0.3-8.2,0-12.3c-0.2-3.4-2.6-5-6.6-5c-4.5-0.2-11.3-0.2-16.1,0 C173.5,143,171.3,144.6,171.3,148.1L171.3,148.1z"></path> <path class="st0" d="M37.9,182c0,1.8-0.5,3.3-1.4,4.3c-0.9,1.1-2.2,1.6-3.8,1.6c-1.5,0-2.8-0.6-3.8-1.7c-1-1.1-1.5-2.6-1.5-4.4 c0-1.7,0.5-3.1,1.4-4.3c0.9-1.2,2.2-1.8,3.8-1.8c1.7,0,3,0.6,3.9,1.8C37.4,178.8,37.9,180.2,37.9,182L37.9,182z M28.6,181.9 c0,1.5,0.4,2.7,1.1,3.6c0.7,0.9,1.7,1.4,3,1.4c1.2,0,2.2-0.5,2.9-1.4c0.7-0.9,1.1-2.1,1.1-3.6c0-1.4-0.3-2.6-1-3.6 c-0.7-1-1.7-1.5-3-1.5c-1.3,0-2.3,0.5-3,1.5C28.9,179.3,28.6,180.5,28.6,181.9L28.6,181.9z"></path> <path class="st0" d="M42.6,176c0.5,0,0.8,0,1.1,0c0.3,0,0.5,0,0.7,0.1c0.2,0,0.4,0.1,0.7,0.2c0.2,0.1,0.6,0.3,1.1,0.6 c0.5,0.3,0.7,1,0.7,2.2c0,0.8-0.2,1.3-0.6,1.7c-0.4,0.4-0.7,0.6-1,0.8c-0.3,0.1-0.7,0.3-1.1,0.3c0.4,0.1,0.7,0.2,0.9,0.4 c0.2,0.2,0.5,0.6,0.8,1.4l1.9,4.1h-1.3l-1.6-3.6c-0.1-0.3-0.3-0.6-0.4-0.9c-0.1-0.2-0.3-0.5-0.5-0.7c-0.2-0.2-0.6-0.3-1.2-0.3h-1.4 v5.4h-1.1V176H42.6L42.6,176z M41.5,181.3h0.9c0.7,0,1.2,0,1.5-0.1c0.4-0.1,0.7-0.2,0.9-0.5c0.3-0.2,0.5-0.5,0.6-0.8 c0.2-0.3,0.2-0.6,0.2-0.9c0-0.8-0.3-1.3-0.9-1.6c-0.6-0.3-1.3-0.4-2.2-0.4h-1.1V181.3L41.5,181.3z"></path> <path d="M62,187.8h-1.1v-7.3l0.1-1.9c0-0.3,0-0.6,0-0.9c0-0.3,0-0.7,0.1-1c-0.2,0.7-0.5,1.3-0.7,1.8c-0.2,0.5-0.5,1.1-0.8,1.9 l-3.2,7.5h-1l-3.1-7.5l-0.8-1.9c-0.2-0.6-0.4-1.2-0.6-1.8c0.1,0.4,0.1,0.8,0.1,1.1c0,0.3,0,0.5,0,0.8l0.1,2.2v7.1h-1.1V176h1.7 l3.1,7.3l0.8,2.1l0.4,1.4c0.1-0.5,0.3-1.1,0.6-1.8c0.3-0.7,0.4-1.1,0.5-1.3c0.1-0.2,0.2-0.4,0.3-0.5l3-7.1H62V187.8L62,187.8z"></path> <path class="st0" d="M74.6,187.8h-1.2l-1.3-3.1h-6l-1.3,3.1h-1.2l4.8-11.8h1.4L74.6,187.8L74.6,187.8z M69.6,178.2 c-0.2-0.4-0.3-0.8-0.4-1.2l-0.5,1.2l-2.1,5.4h5.2L69.6,178.2L69.6,178.2z"></path> <path d="M84.9,187.8h-1.3l-4.8-7.9l-0.9-1.6c-0.1-0.1-0.2-0.3-0.3-0.6c-0.1-0.3-0.2-0.5-0.3-0.7c0,0.3,0.1,0.6,0.1,0.9 c0,0.3,0,0.6,0,0.9l0,1.6v7.3h-1.1V176h1.3l4.9,8c0.4,0.6,0.7,1.2,0.9,1.7c0.3,0.5,0.5,0.9,0.6,1.3l-0.2-1.9l0-2.3V176h1.1V187.8 L84.9,187.8z"></path> <path class="st0" d="M101.4,182.7v0.2v0.2c0,0.2,0,0.3,0,0.5c0,0.2,0,0.4-0.1,0.8c0,0.3-0.2,1-0.6,2c-0.4,1-1.6,1.5-3.5,1.5 c-0.5,0-0.9-0.1-1.3-0.2c-0.4-0.1-0.8-0.3-1.4-0.6c-0.5-0.3-0.9-0.9-1.2-1.6c-0.1-0.4-0.2-0.8-0.3-1.3c-0.1-0.5-0.1-1-0.1-1.6V176 h1.1v6.7c0,1.2,0.1,2,0.3,2.5c0.2,0.5,0.6,0.9,1.1,1.3c0.5,0.3,1.1,0.5,1.7,0.5c0.7,0,1.3-0.2,1.8-0.6c0.5-0.4,0.9-0.9,1.1-1.4 c0.2-0.6,0.3-1.3,0.3-2.3V176h1.1V182.7L101.4,182.7z M99.5,174.8h-1.2v-1.5h1.2V174.8L99.5,174.8z M96.5,174.8h-1.2v-1.5h1.2V174.8 L96.5,174.8z"></path> <path class="st0" d="M106.7,176c0.5,0,0.8,0,1.1,0c0.3,0,0.5,0,0.7,0.1c0.2,0,0.4,0.1,0.7,0.2c0.2,0.1,0.6,0.3,1.1,0.6 c0.5,0.3,0.7,1,0.7,2.2c0,0.8-0.2,1.3-0.6,1.7c-0.4,0.4-0.7,0.6-1,0.8c-0.3,0.1-0.7,0.3-1.1,0.3c0.4,0.1,0.7,0.2,0.9,0.4 c0.2,0.2,0.5,0.6,0.8,1.4l1.9,4.1h-1.3l-1.6-3.6c-0.1-0.3-0.3-0.6-0.4-0.9c-0.1-0.2-0.3-0.5-0.5-0.7c-0.2-0.2-0.6-0.3-1.2-0.3h-1.4 v5.4h-1.1V176H106.7L106.7,176z M105.5,181.3h0.9c0.7,0,1.2,0,1.5-0.1c0.4-0.1,0.7-0.2,0.9-0.5c0.3-0.2,0.5-0.5,0.6-0.8 c0.2-0.3,0.2-0.6,0.2-0.9c0-0.8-0.3-1.3-0.9-1.6c-0.6-0.3-1.3-0.4-2.2-0.4h-1.1V181.3L105.5,181.3z"></path> <path class="st0" d="M122.4,182.7v0.2v0.2c0,0.2,0,0.3,0,0.5c0,0.2,0,0.4-0.1,0.8c0,0.3-0.2,1-0.6,2c-0.4,1-1.6,1.5-3.5,1.5 c-0.5,0-0.9-0.1-1.3-0.2c-0.4-0.1-0.8-0.3-1.4-0.6c-0.5-0.3-0.9-0.9-1.2-1.6c-0.1-0.4-0.2-0.8-0.3-1.3c-0.1-0.5-0.1-1-0.1-1.6V176 h1.1v6.7c0,1.2,0.1,2,0.3,2.5c0.2,0.5,0.6,0.9,1.1,1.3c0.5,0.3,1.1,0.5,1.7,0.5c0.7,0,1.3-0.2,1.8-0.6c0.5-0.4,0.9-0.9,1.1-1.4 c0.2-0.6,0.3-1.3,0.3-2.3V176h1.1V182.7L122.4,182.7z M120.6,174.8h-1.2v-1.5h1.2V174.8L120.6,174.8z M117.6,174.8h-1.2v-1.5h1.2 V174.8L117.6,174.8z"></path> <path d="M134,187.8h-1.3l-4.8-7.9l-0.9-1.6c-0.1-0.1-0.2-0.3-0.3-0.6c-0.1-0.3-0.2-0.5-0.3-0.7c0,0.3,0.1,0.6,0.1,0.9 c0,0.3,0,0.6,0,0.9l0,1.6v7.3h-1.1V176h1.3l4.9,8c0.4,0.6,0.7,1.2,0.9,1.7c0.3,0.5,0.5,0.9,0.6,1.3l-0.2-1.9l0-2.3V176h1.1V187.8 L134,187.8z"></path> <polygon points="138.2,186.8 142.9,186.8 142.9,187.8 137,187.8 137,176 138.2,176 138.2,186.8 "></polygon> <polygon points="150.6,176 150.6,177 146,177 146,181.2 150.4,181.2 150.4,182.2 146,182.2 146,186.8 150.9,186.8 150.9,187.8 144.9,187.8 144.9,176 150.6,176 "></polygon> <path class="st0" d="M155.7,176c0.5,0,0.8,0,1.1,0c0.3,0,0.5,0,0.7,0.1c0.2,0,0.4,0.1,0.7,0.2c0.2,0.1,0.6,0.3,1.1,0.6 c0.5,0.3,0.7,1,0.7,2.2c0,0.8-0.2,1.3-0.6,1.7c-0.4,0.4-0.7,0.6-1,0.8c-0.3,0.1-0.7,0.3-1.1,0.3c0.4,0.1,0.7,0.2,0.9,0.4 c0.2,0.2,0.5,0.6,0.8,1.4l1.9,4.1h-1.3l-1.6-3.6c-0.1-0.3-0.3-0.6-0.4-0.9c-0.1-0.2-0.3-0.5-0.5-0.7c-0.2-0.2-0.6-0.3-1.2-0.3h-1.4 v5.4h-1.1V176H155.7L155.7,176z M154.6,181.3h0.9c0.7,0,1.2,0,1.5-0.1c0.4-0.1,0.7-0.2,0.9-0.5c0.3-0.2,0.5-0.5,0.6-0.8 c0.2-0.3,0.2-0.6,0.2-0.9c0-0.8-0.3-1.3-0.9-1.6c-0.6-0.3-1.3-0.4-2.2-0.4h-1.1V181.3L154.6,181.3z"></path> <path class="st0" d="M164.2,187.8h-1.1V176h1.1V187.8L164.2,187.8z M164.2,173.5v1.5H163v-1.5h1.4H164.2L164.2,173.5z"></path> <path d="M177.8,177.3c-0.8-0.3-1.5-0.5-2.2-0.5c-0.7,0-1.3,0.2-1.8,0.5c-0.5,0.4-0.7,0.8-0.7,1.4c0,0.7,0.5,1.3,1.4,1.9l2.7,1.5 c0.9,0.7,1.4,1.6,1.4,2.5c0,1-0.4,1.8-1.1,2.4c-0.7,0.6-1.6,0.9-2.8,0.9c-0.5,0-1,0-1.4-0.1c-0.4-0.1-0.9-0.2-1.3-0.4l0.1-1.2 c0.9,0.5,1.7,0.7,2.6,0.7c0.8,0,1.4-0.2,1.9-0.6c0.5-0.4,0.7-1,0.7-1.6c0-0.8-0.5-1.4-1.4-2l-2.6-1.5c-0.9-0.7-1.4-1.5-1.4-2.5 c0-0.9,0.3-1.7,1-2.2c0.7-0.5,1.6-0.8,2.7-0.8c0.4,0,0.8,0,1.2,0.1c0.4,0.1,0.8,0.2,1.2,0.3L177.8,177.3L177.8,177.3z"></path> <path class="st0" d="M190.6,187.8h-1.2l-1.3-3.1h-6l-1.3,3.1h-1.2l4.8-11.8h1.4L190.6,187.8L190.6,187.8z M185.5,178.2 c-0.2-0.4-0.3-0.8-0.4-1.2l-0.5,1.2l-2.1,5.4h5.2L185.5,178.2L185.5,178.2z"></path> <path d="M200.8,187.8h-1.3l-4.8-7.9l-0.9-1.6c-0.1-0.1-0.2-0.3-0.3-0.6c-0.1-0.3-0.2-0.5-0.3-0.7c0,0.3,0.1,0.6,0.1,0.9 c0,0.3,0,0.6,0,0.9l0,1.6v7.3h-1.1V176h1.3l4.9,8c0.4,0.6,0.7,1.2,0.9,1.7c0.3,0.5,0.5,0.9,0.6,1.3l-0.2-1.9l0-2.3V176h1.1V187.8 L200.8,187.8z"></path> <path class="st0" d="M213.4,187.8h-1.2l-1.3-3.1h-6l-1.3,3.1h-1.2l4.8-11.8h1.4L213.4,187.8L213.4,187.8z M208.4,178.2 c-0.2-0.4-0.3-0.8-0.4-1.2l-0.5,1.2l-2.1,5.4h5.2L208.4,178.2L208.4,178.2z"></path> <path d="M219.4,182.8v5h-1.1v-5l-4.5-6.8h1.4l2.9,4.5l0.4,0.6c0.1,0.1,0.1,0.2,0.2,0.3c0.1,0.1,0.1,0.2,0.2,0.3 c0.1-0.2,0.2-0.4,0.2-0.5c0.1-0.1,0.2-0.3,0.2-0.4c0.1-0.1,0.2-0.3,0.3-0.4l2.8-4.5h1.3L219.4,182.8L219.4,182.8z"></path> <path class="st0" d="M226.8,187.8h-1.1V176h1.1V187.8L226.8,187.8z M226.8,173.5v1.5h-1.2v-1.5h1.4H226.8L226.8,173.5z"></path> <path class="st0" d="M244.5,187.8h-1.2l-1.3-3.1h-6l-1.3,3.1h-1.2l4.8-11.8h1.4L244.5,187.8L244.5,187.8z M239.4,178.2 c-0.2-0.4-0.3-0.8-0.4-1.2l-0.5,1.2l-2.1,5.4h5.2L239.4,178.2L239.4,178.2z"></path> <polygon points="247.7,187.8 246.3,187.8 246.3,186.3 247.7,186.3 247.7,187.8 "></polygon> <path class="st0" d="M256.4,177.3c-0.8-0.3-1.5-0.5-2.2-0.5c-0.7,0-1.3,0.2-1.8,0.5c-0.5,0.4-0.7,0.8-0.7,1.4c0,0.7,0.5,1.3,1.4,1.9 l2.7,1.5c0.9,0.7,1.4,1.6,1.4,2.5c0,1-0.4,1.8-1.1,2.4c-0.7,0.6-1.6,0.9-2.8,0.9c-0.5,0-1,0-1.4-0.1c-0.4-0.1-0.9-0.2-1.3-0.4 l0.1-1.2c0.9,0.5,1.7,0.7,2.6,0.7c0.8,0,1.4-0.2,1.9-0.6c0.5-0.4,0.7-1,0.7-1.6c0-0.8-0.5-1.4-1.4-2l-2.6-1.5 c-0.9-0.7-1.4-1.5-1.4-2.5c0-0.9,0.3-1.7,1-2.2c0.7-0.5,1.6-0.8,2.7-0.8c0.4,0,0.8,0,1.2,0.1c0.4,0.1,0.8,0.2,1.2,0.3L256.4,177.3 L256.4,177.3z M252.9,188.7l0.4,0c0.4,0,0.7,0.1,1,0.3c0.3,0.2,0.4,0.5,0.4,0.9c0,0.4-0.1,0.7-0.4,0.9c-0.3,0.2-0.5,0.3-0.7,0.4 c-0.2,0.1-0.5,0.1-0.7,0.1c-0.5,0-1.1-0.1-1.6-0.4l0.3-0.6l0.7,0.2c0.2,0.1,0.4,0.1,0.6,0.1c0.3,0,0.5-0.1,0.6-0.2 c0.1-0.1,0.2-0.3,0.3-0.5c0-0.5-0.3-0.7-0.9-0.7l-0.5,0.1l-0.2-0.3l0.9-1.4h0.7L252.9,188.7L252.9,188.7z"></path> <polygon points="261.1,187.8 259.8,187.8 259.8,186.3 261.1,186.3 261.1,187.8 "></polygon> <polygon points="178.7,126 144.5,101.1 110.3,125.9 123.3,85.9 89.1,60.9 132.5,60.9 144.5,20.7 157.5,60.9 199.8,60.9 165.6,85.7 178.7,126 "></polygon> <polygon class="st1" points="26,62.4 81.2,62.4 121.4,91.8 110.9,124.2 26,62.4 "></polygon> <polygon class="st1" points="263.3,62.4 208.1,62.4 168.5,91.6 178.7,124 263.3,62.4 "></polygon> <path class="st0" d="M265.2,141c0.5,0,0.8,0.1,1,0.2c0.2,0.2,0.3,0.4,0.3,0.6c0,0.2-0.1,0.3-0.2,0.5c-0.1,0.2-0.3,0.3-0.5,0.3 c0.1,0,0.1,0.1,0.2,0.1c0,0.1,0.1,0.2,0.2,0.3l0.6,1.2h-0.5l-0.5-1c-0.1-0.2-0.2-0.3-0.3-0.4c-0.1-0.1-0.2-0.1-0.3-0.1h-0.3v1.5 h-0.4V141H265.2L265.2,141z M264.9,142.5h0.2c0.3,0,0.6-0.1,0.7-0.2c0.1-0.1,0.2-0.3,0.2-0.4c0-0.2-0.1-0.3-0.3-0.4 c-0.2-0.1-0.4-0.1-0.6-0.1h-0.3V142.5L264.9,142.5z M268.4,142.7c0,0.8-0.3,1.5-0.9,2.1c-0.6,0.6-1.3,0.9-2.1,0.9 c-0.8,0-1.5-0.3-2.1-0.8c-0.6-0.6-0.9-1.3-0.9-2.1c0-0.8,0.3-1.5,0.9-2.1c0.6-0.6,1.3-0.9,2.1-0.9c0.8,0,1.5,0.3,2.1,0.9 C268.2,141.2,268.4,141.9,268.4,142.7L268.4,142.7z M262.9,142.7c0,0.7,0.3,1.4,0.8,1.9c0.5,0.5,1.1,0.8,1.9,0.8 c0.7,0,1.3-0.3,1.8-0.8c0.5-0.5,0.8-1.1,0.8-1.9c0-0.7-0.3-1.4-0.8-1.9c-0.5-0.5-1.1-0.8-1.8-0.8c-0.7,0-1.3,0.3-1.9,0.8 C263.1,141.3,262.9,142,262.9,142.7L262.9,142.7z"></path> </svg> 